<svg xmlns="http://www.w3.org/2000/svg" version="1.1" xmlns:xlink="http://www.w3.org/1999/xlink" xmlns:svgjs="http://svgjs.dev/svgjs" viewBox="0 0 8.888961462138141 8.031419833519559"><g transform="matrix(0.8506551923202327,0,0,0.8506551923202327,1.2634855452341656,5.908157444227339)"><g transform="matrix(1,0,0,1,0,0)" clip-path="url(#SvgjsClipPath6297)"><g clip-path="url(#SvgjsClipPath6295c42f6fce-8ecd-4483-8cd4-44a8a8e4685b)"><path d=" M 4.761289661196453 -5.4263157130921815 C 4.26796244583779 -5.4263157130921815 3.8327914515475374 -5.225358892517732 3.5734429596169472 -4.806669418368326 L 3.5734429596169472 -4.766348556595184 L 3.5734429596169472 -4.8469902801414655 L 3.5729720590414944 -4.732561440306451 L 3.572618883609905 -4.847284593001123 L 3.572618883609905 -4.809318234105248 C 3.313211529107384 -5.228007708254654 2.8780405348171314 -5.426610025951844 2.384831044602331 -5.426610025951844 C 1.5898331480942633 -5.426610025951844 0.9454057105872055 -4.713313379284823 0.9454057105872055 -3.8333179289075394 C 0.9451396872538433 -3.6499736863378347 0.973784709731479 -3.467734132794227 1.0302855393125423 -3.293312694007179 C 1.0329384802748187 -3.2831197793158986 1.0363623724455469 -3.2731432659218767 1.040527626828656 -3.263469370037808 C 1.041175115119904 -3.2614091800202014 1.041999191126946 -3.259348990002597 1.0427644045620568 -3.2575831128446477 C 1.0489449746148736 -3.2399243412651693 1.0552432698115541 -3.222265569685691 1.0620124655836867 -3.2046067981062167 C 1.7329280604599608 -1.388637591444697 3.572618883609905 -0.3590723457892393 3.572618883609905 -0.3590723457892393 L 3.5733252344730837 -0.3590723457892393 C 3.5733252344730837 -0.3590723457892393 5.41307492019496 -1.3885787288727673 6.083931652499302 -3.204077034958828 C 6.090818573415298 -3.2217358065383066 6.097058006040046 -3.2393945781177855 6.1032974386647965 -3.257053349697259 L 6.105593078970127 -3.2629396068904195 C 6.10964915810938 -3.2726370623065724 6.11301275353073 -3.2826098276786504 6.1156585787704305 -3.29278293085974 C 6.172228122644486 -3.4671910719985926 6.200913621919278 -3.649435372792872 6.200656132639646 -3.832788165760151 C 6.200656132639646 -4.713019066425159 5.556169832560657 -5.4263157130921815 4.761289661196453 -5.4263157130921815 Z" fill="#64c6c4" transform="matrix(1,0,0,1,0,0)" fill-rule="nonzero"></path></g><g clip-path="url(#SvgjsClipPath6295c42f6fce-8ecd-4483-8cd4-44a8a8e4685b)"><path d=" M 3.6017558567160424 -0.250058862571934 L 3.544247123938878 -0.250058862571934 L 3.5194071185837466 -0.2639504295477879 C 3.4428857750726785 -0.3068023819139869 1.6368054804956726 -1.3341308498360451 0.9597681781385135 -3.1663461263506774 C 0.9531755700821752 -3.183063096779249 0.946465236881974 -3.2016636695096343 0.9398726288256356 -3.2208528679593313 C 0.9339528914839905 -3.2350478973188688 0.9289779688693369 -3.2496187180993372 0.9249803981269431 -3.2644700337606376 C 0.86583573647089 -3.448175280990553 0.8359219675722407 -3.6400325809852747 0.8363333647979676 -3.833023616047875 C 0.8363333647979673 -4.771705050640955 1.5309117135907406 -5.535388058881416 2.384831044602331 -5.535388058881416 C 2.8209438400434883 -5.535388058881416 3.1938970958020483 -5.390527269357772 3.4636054003925985 -5.121584178202334 L 3.5729720590414944 -5.0256381859538415 L 3.682397580262322 -5.119818301044388 C 3.952517922856393 -5.390115231354254 4.325412316043021 -5.535623509169147 4.761289661196453 -5.535623509169147 C 5.615150129636112 -5.535623509169147 6.309728478428885 -4.771940500928689 6.309728478428885 -3.8332590663356054 C 6.310004474536819 -3.638431042984787 6.279510861713298 -3.4447817023960146 6.21937443051392 -3.259466715146538 C 6.216140700795373 -3.247283115608684 6.212049355968786 -3.2353434698887877 6.207131015552123 -3.223737133983984 L 6.206189214401218 -3.2209705931031944 C 6.199537743772947 -3.2021934326570163 6.192827410572746 -3.1832985470669772 6.185528451653228 -3.1646979743365913 C 5.50925636273118 -1.3341308498360451 3.703117205582242 -0.3068023819139869 3.626595862071174 -0.2639504295477879 Z M 2.384831044602331 -5.3173022298748736 C 1.6512268106189125 -5.3173022298748736 1.0545369189483749 -4.65150767875665 1.0545369189483749 -3.833023616047875 C 1.0542789086220519 -3.6611491838548016 1.0811364183063286 -3.4903099950346963 1.1341191161998863 -3.326805497436191 C 1.1359012531828085 -3.319772132441963 1.1381629424739024 -3.3128690633882774 1.1408883119720183 -3.306144734688203 L 1.1457150428704095 -3.2933126940071147 C 1.1516013000635685 -3.2767134487224086 1.1574875572567276 -3.2601730660096297 1.163726989881476 -3.243868133584579 C 1.7506456946113695 -1.6555793551544613 3.2699475387376635 -0.669807863016108 3.5730897841853575 -0.48568573801409 C 3.876290892204983 -0.6700433133038342 5.396240224622525 -1.6570509194527503 5.981805090197992 -3.2419845312827693 C 5.988868598829783 -3.260173066009634 5.9946959934510105 -3.2767134487224086 6.000523388072238 -3.293312694007119 L 6.0054678441144915 -3.306380184975932 C 6.007567513819447 -3.3112954851776677 6.00926058094353 -3.31637468654992 6.010530025300607 -3.3215667285342825 C 6.064405223368074 -3.4867214901680397 6.091801309327324 -3.6593625249656387 6.091701511994272 -3.833082478619806 C 6.091701511994272 -4.6515665413285765 5.494952757751802 -5.317361092446803 4.761407386340316 -5.317361092446803 C 4.293391076912236 -5.317361092446803 3.911490710220074 -5.124998207374367 3.682574167978117 -4.77482476695333 L 3.5730897841853575 -4.581225767870329 C 3.5730897841853575 -4.581225767870329 3.5002179201340478 -4.725321343958863 3.4639585758241878 -4.776884956970937 C 3.2357483844454102 -5.1256456956656145 2.8537302926093844 -5.3173022298748736 2.384831044602331 -5.3173022298748736 Z" fill="#a4cb6a" transform="matrix(1,0,0,1,0,0)" fill-rule="nonzero"></path></g><g clip-path="url(#SvgjsClipPath6295c42f6fce-8ecd-4483-8cd4-44a8a8e4685b)"><path d=" M 4.007201252180842 -1.9296434900679493 C 2.421090388912191 -1.449442628250032 0.9670671370580304 -1.4905875660302135 0.5009932925036935 -1.9865047345538676 C 0.8922528081329781 -1.2526650502827223 2.3895400503568585 -0.9850169357097789 4.064945435245731 -1.4438506839165317 C 5.9002215655008055 -1.946478185640386 6.868687461491272 -3.017541544507614 6.871689452659784 -3.829256411444255 C 6.672145333811691 -3.174940061852687 5.5213231899771555 -2.3880063376992493 4.007201252180842 -1.9296434900679493 Z" fill="#a4cb6a" transform="matrix(1,0,0,1,0,0)" fill-rule="nonzero"></path></g><g clip-path="url(#SvgjsClipPath6295c42f6fce-8ecd-4483-8cd4-44a8a8e4685b)"><path d=" M 4.113448194517362 -1.6758869424708602 C 2.527337331248712 -1.1958038057968041 1.0733140793945521 -1.2368898810050561 0.6071813722682834 -1.7328070495287102 C 0.9985586130414318 -0.998967365257565 2.49578699269338 -0.7313192506846216 4.171192377582253 -1.1901529988913744 C 6.006527370409261 -1.6927805006152283 6.9749344038277945 -2.7638438594824564 6.9779363949963065 -3.5755587264190978 C 6.778392276148213 -2.9211835142556 5.6275112697417455 -2.134308652674092 4.113448194517362 -1.6758869424708602 Z" fill="#212245" transform="matrix(1,0,0,1,0,0)" fill-rule="nonzero"></path></g><g clip-path="url(#SvgjsClipPath6295c42f6fce-8ecd-4483-8cd4-44a8a8e4685b)"><path d=" M 4.546029235642625 -3.5687306680750304 L 3.945101238793013 -3.5687306680750304 L 3.945101238793013 -4.169599802352713 C 3.9451168616151757 -4.207930391759254 3.9298970129522828 -4.244695546709032 3.902793191004772 -4.271799368656541 C 3.8756893690572616 -4.298903190604049 3.838924214107479 -4.314123039266937 3.800593624700949 -4.3141074164447675 L 3.3454093559539637 -4.3141074164447675 C 3.265590477171999 -4.3141074230611265 3.2008753788334547 -4.249418674518326 3.200842879289976 -4.169599802352717 L 3.200842879289976 -3.5687306680750304 L 2.6000326075842275 -3.5687306680750304 C 2.561691194094934 -3.5687306680750304 2.5249201450814316 -3.5534996008709507 2.4978086716028747 -3.5263881273923956 C 2.470697198124318 -3.499276653913836 2.45546613092024 -3.4625056049003353 2.45546613092024 -3.4241641914110437 L 2.45546613092024 -2.968921060092118 C 2.45546613092024 -2.8890791996938288 2.5201907471859366 -2.824354583428134 2.6000326075842253 -2.8243545834281316 L 3.200842879289977 -2.8243545834281316 L 3.200842879289977 -2.223544311722385 C 3.2008428809725182 -2.143702448277584 3.265567498602185 -2.078977833375857 3.345409359000474 -2.0789778350583985 L 3.8008290749886835 -2.0789778350583985 C 3.839169869736361 -2.0789621985254274 3.875943956325171 -2.0941901251713433 3.9030494735079806 -2.121306683298015 C 3.9301549906907898 -2.148423241424687 3.945367939863344 -2.1852035265221152 3.9453366890807393 -2.223544311722385 L 3.9453366890807393 -2.824354583428134 L 4.546029235642625 -2.824354583428134 C 4.584370649131918 -2.824354583428134 4.621141698145421 -2.8395856506322157 4.648253171623978 -2.8666971241107704 C 4.675364645102533 -2.8938085975893277 4.690595712306612 -2.930579646602831 4.690595712306612 -2.9689210600921228 L 4.690595712306612 -3.424164191411046 C 4.690595712306612 -3.5040060518093354 4.625871096040916 -3.5687306680750304 4.546029235642627 -3.568730668075035 Z" fill="#212245" transform="matrix(1,0,0,1,0,0)" fill-rule="nonzero"></path></g></g><g><path d=" M 0.0555 0.8025 Q 0.0585 0.867 0.08925 0.9195000000000001 Q 0.12 0.9720000000000001 0.17325000000000002 1.00875 Q 0.2265 1.0455 0.2985 1.06575 Q 0.3705 1.086 0.456 1.086 Q 0.543 1.086 0.61275 1.0650000000000002 Q 0.6825 1.044 0.732 1.0050000000000001 Q 0.7815 0.9660000000000001 0.8085 0.9105000000000001 Q 0.8355 0.8550000000000001 0.8355 0.7875000000000001 Q 0.8355 0.6945000000000001 0.789 0.6352500000000001 Q 0.7425 0.5760000000000001 0.67275 0.53625 Q 0.603 0.49650000000000005 0.52125 0.46950000000000003 Q 0.4395 0.4425 0.36975 0.4125000000000001 Q 0.3 0.38250000000000006 0.2535 0.3435 Q 0.20700000000000002 0.3045 0.20700000000000002 0.24 Q 0.20700000000000002 0.20400000000000007 0.22275 0.1725 Q 0.23850000000000002 0.14100000000000001 0.26925 0.11775000000000002 Q 0.3 0.09450000000000003 0.34500000000000003 0.08025000000000004 Q 0.39 0.06600000000000006 0.4485 0.06600000000000006 Q 0.546 0.06600000000000006 0.61425 0.10725000000000007 Q 0.6825 0.14850000000000008 0.6945 0.237 L 0.7965 0.237 Q 0.7875 0.1815 0.756 0.1372500000000001 Q 0.7245 0.09300000000000008 0.6765 0.06225000000000014 Q 0.6285000000000001 0.031500000000000083 0.56775 0.01574999999999993 Q 0.507 0 0.441 0 Q 0.372 0 0.30975 0.018000000000000016 Q 0.2475 0.03600000000000003 0.20025 0.07050000000000001 Q 0.153 0.1050000000000001 0.12525 0.15750000000000008 Q 0.0975 0.21000000000000008 0.0975 0.2775000000000001 Q 0.0975 0.366 0.14250000000000002 0.42000000000000004 Q 0.1875 0.4740000000000001 0.25575000000000003 0.51 Q 0.324 0.546 0.4035 0.5715000000000001 Q 0.483 0.597 0.55125 0.6292500000000001 Q 0.6195 0.6615 0.6645 0.7080000000000001 Q 0.7095 0.7545000000000001 0.7095 0.8325 Q 0.7095 0.93 0.63825 0.9750000000000001 Q 0.5670000000000001 1.02 0.4485 1.02 Q 0.354 1.02 0.297 0.9952500000000001 Q 0.24 0.9705 0.21 0.936 Q 0.18 0.9015000000000001 0.1695 0.86475 Q 0.159 0.8280000000000001 0.1575 0.8025 L 0.0555 0.8025 M 1.698 0.7590000000000001 L 1.842 1.068 L 1.9874999999999998 1.068 L 1.4985 0.018000000000000016 L 1.4235 0.018000000000000016 L 0.9795 1.068 L 1.0485 1.068 L 1.1804999999999999 0.7590000000000001 L 1.698 0.7590000000000001 M 1.6665 0.6915 L 1.209 0.6915 L 1.425 0.18600000000000005 L 1.431 0.18600000000000005 L 1.6665 0.6915 M 2.269491943359375 0.018000000000000016 L 2.269491943359375 1.068 L 2.405991943359375 1.068 L 2.405991943359375 0.018000000000000016 L 2.269491943359375 0.018000000000000016 M 3.211508056640625 1.068 L 3.211508056640625 0.10050000000000003 L 3.6135080566406246 0.10050000000000003 L 3.6135080566406246 0.018000000000000016 L 2.6730080566406245 0.018000000000000016 L 2.6730080566406245 0.10050000000000003 L 3.0750080566406246 0.10050000000000003 L 3.0750080566406246 1.068 L 3.211508056640625 1.068 M 4.342459716796874 1.068 L 4.342459716796874 0.018000000000000016 L 4.478959716796874 0.018000000000000016 L 4.478959716796874 0.9855 L 5.020459716796874 0.9855 L 5.020459716796874 1.068 L 4.342459716796874 1.068 M 5.3024443359374995 0.018000000000000016 L 5.3024443359374995 1.068 L 5.438944335937499 1.068 L 5.438944335937499 0.018000000000000016 L 5.3024443359374995 0.018000000000000016 M 5.855960449218749 0.018000000000000016 L 5.855960449218749 1.068 L 5.992460449218749 1.068 L 5.992460449218749 0.546 L 6.4574604492187495 0.546 L 6.4574604492187495 0.4770000000000001 L 5.992460449218749 0.4770000000000001 L 5.992460449218749 0.10050000000000003 L 6.533960449218749 0.10050000000000003 L 6.533960449218749 0.018000000000000016 L 5.855960449218749 0.018000000000000016 M 6.755945068359374 0.018000000000000016 L 6.755945068359374 1.068 L 7.433945068359374 1.068 L 7.433945068359374 0.9855 L 6.892445068359374 0.9855 L 6.892445068359374 0.546 L 7.357445068359374 0.546 L 7.357445068359374 0.4770000000000001 L 6.892445068359374 0.4770000000000001 L 6.892445068359374 0.10050000000000003 L 7.433945068359374 0.10050000000000003 L 7.433945068359374 0.018000000000000016 L 6.755945068359374 0.018000000000000016" fill="#212245" fill-rule="nonzero"></path></g><g></g></g><defs><clipPath id="SvgjsClipPath6297"><path d=" M 0.5009932925036935 -5.535388058881416 h 6.476943102492613 v 5.285388058881416 h -6.476943102492613 Z"></path></clipPath><clipPath id="SvgjsClipPath6295c42f6fce-8ecd-4483-8cd4-44a8a8e4685b"><path d=" M 0.5009932925036935 -5.535388058881417 L 6.9779363949963065 -5.535388058881417 L 6.9779363949963065 -0.25 L 0.5009932925036935 -0.25 Z"></path></clipPath></defs></svg>